<svg width="36" height="24" viewBox="0 0 36 24" fill="none" xmlns="http://www.w3.org/2000/svg">
<rect width="36" height="24" rx="4" fill="#C46A2B"/>
<path fill-rule="evenodd" clip-rule="evenodd" d="M19.47 5.47007C19.6106 5.32962 19.8012 5.25073 20 5.25073C20.1988 5.25073 20.3894 5.32962 20.53 5.47007L26.53 11.4701C26.6705 11.6107 26.7493 11.8013 26.7493 12.0001C26.7493 12.1988 26.6705 12.3894 26.53 12.5301L20.53 18.5301C20.4613 18.6038 20.3785 18.6629 20.2865 18.7039C20.1945 18.7448 20.0952 18.7669 19.9945 18.7687C19.8938 18.7704 19.7938 18.7519 19.7004 18.7142C19.607 18.6765 19.5222 18.6203 19.451 18.5491C19.3797 18.4779 19.3236 18.3931 19.2859 18.2997C19.2482 18.2063 19.2296 18.1063 19.2314 18.0056C19.2332 17.9048 19.2552 17.8055 19.2962 17.7135C19.3372 17.6215 19.3963 17.5387 19.47 17.4701L24.19 12.7501H10C9.80109 12.7501 9.61032 12.6711 9.46967 12.5304C9.32902 12.3898 9.25 12.199 9.25 12.0001C9.25 11.8012 9.32902 11.6104 9.46967 11.4697C9.61032 11.3291 9.80109 11.2501 10 11.2501H24.19L19.47 6.53007C19.3295 6.38945 19.2507 6.19882 19.2507 6.00007C19.2507 5.80132 19.3295 5.6107 19.47 5.47007Z" fill="#D9D9D9"/>
</svg>
