<svg width="40" height="40" viewBox="0 0 40 40" fill="none" xmlns="http://www.w3.org/2000/svg">
<rect x="1" y="1" width="38" height="38" rx="7" stroke="#05BCCA" stroke-width="2"/>
<path d="M23.4737 23.4737C23.8087 23.4737 24.13 23.6068 24.3669 23.8437C24.6038 24.0805 24.7368 24.4018 24.7368 24.7368C24.7368 25.0719 24.6038 25.3931 24.3669 25.63C24.13 25.8669 23.8087 26 23.4737 26C23.1387 26 22.8174 25.8669 22.5805 25.63C22.3436 25.3931 22.2105 25.0719 22.2105 24.7368C22.2105 24.4018 22.3436 24.0805 22.5805 23.8437C22.8174 23.6068 23.1387 23.4737 23.4737 23.4737ZM23.4737 24.1053C23.3062 24.1053 23.1455 24.1718 23.0271 24.2902C22.9086 24.4087 22.8421 24.5693 22.8421 24.7368C22.8421 24.9043 22.9086 25.065 23.0271 25.1834C23.1455 25.3019 23.3062 25.3684 23.4737 25.3684C23.6412 25.3684 23.8018 25.3019 23.9203 25.1834C24.0387 25.065 24.1053 24.9043 24.1053 24.7368C24.1053 24.5693 24.0387 24.4087 23.9203 24.2902C23.8018 24.1718 23.6412 24.1053 23.4737 24.1053ZM17.7895 23.4737C18.1245 23.4737 18.4458 23.6068 18.6827 23.8437C18.9195 24.0805 19.0526 24.4018 19.0526 24.7368C19.0526 25.0719 18.9195 25.3931 18.6827 25.63C18.4458 25.8669 18.1245 26 17.7895 26C17.4545 26 17.1332 25.8669 16.8963 25.63C16.6594 25.3931 16.5263 25.0719 16.5263 24.7368C16.5263 24.4018 16.6594 24.0805 16.8963 23.8437C17.1332 23.6068 17.4545 23.4737 17.7895 23.4737ZM17.7895 24.1053C17.622 24.1053 17.4613 24.1718 17.3429 24.2902C17.2244 24.4087 17.1579 24.5693 17.1579 24.7368C17.1579 24.9043 17.2244 25.065 17.3429 25.1834C17.4613 25.3019 17.622 25.3684 17.7895 25.3684C17.957 25.3684 18.1176 25.3019 18.2361 25.1834C18.3545 25.065 18.4211 24.9043 18.4211 24.7368C18.4211 24.5693 18.3545 24.4087 18.2361 24.2902C18.1176 24.1718 17.957 24.1053 17.7895 24.1053ZM24.7368 15.8947H16.0653L17.6758 19.6842H22.8421C23.0505 19.6842 23.2337 19.5832 23.3474 19.4316L25.2421 16.9053C25.3242 16.7979 25.3684 16.6653 25.3684 16.5263C25.3684 16.3588 25.3019 16.1982 25.1834 16.0797C25.065 15.9613 24.9043 15.8947 24.7368 15.8947ZM22.8421 20.3158H17.7074L17.2211 21.3011L17.1579 21.5789C17.1579 21.7465 17.2244 21.9071 17.3429 22.0255C17.4613 22.144 17.622 22.2105 17.7895 22.2105H24.7368V22.8421H17.7895C17.4545 22.8421 17.1332 22.709 16.8963 22.4721C16.6594 22.2352 16.5263 21.914 16.5263 21.5789C16.5261 21.3646 16.5805 21.1538 16.6842 20.9663L17.1389 20.0379L14.8463 14.6316H14V14H15.2632L15.8 15.2632H24.7368C25.0719 15.2632 25.3931 15.3962 25.63 15.6331C25.8669 15.87 26 16.1913 26 16.5263C26 16.8421 25.8926 17.1074 25.7158 17.3221L23.8779 19.7789C23.6505 20.1011 23.2716 20.3158 22.8421 20.3158Z" fill="#05BCCA"/>
</svg>
