<svg width="40" height="40" viewBox="0 0 40 40" fill="none" xmlns="http://www.w3.org/2000/svg">
<rect x="1" y="1" width="38" height="38" rx="7" stroke="#05BCCA" stroke-width="2"/>
<path d="M25.4202 25.8999C25.7307 26.2087 26.2099 25.7321 25.8994 25.4301L23.3684 22.9065C24.2564 21.9297 24.7472 20.6593 24.7453 19.3425C24.7453 16.3961 22.3357 14 19.3726 14C16.4096 14 14 16.3961 14 19.3425C14 22.289 16.4096 24.6851 19.3726 24.6851C20.709 24.6851 21.9442 24.1951 22.8891 23.383L25.4202 25.8999ZM14.6743 19.3425C14.6743 16.7652 16.7869 14.6712 19.372 14.6712C21.9638 14.6712 24.0696 16.7652 24.0696 19.3425C24.0696 21.9199 21.9638 24.0139 19.372 24.0139C16.7869 24.0139 14.6743 21.9199 14.6743 19.3425Z" fill="#05BCCA"/>
</svg>
