<svg width="40" height="40" viewBox="0 0 40 40" fill="none" xmlns="http://www.w3.org/2000/svg">
<rect width="40" height="40" rx="8" fill="#05BCCA"/>
<path d="M25.945 25.4363C25.0161 23.7657 23.5579 22.5934 21.8636 22.0963C22.6873 21.6604 23.3461 20.9485 23.7336 20.0753C24.121 19.2021 24.2147 18.2186 23.9994 17.2832C23.7841 16.3478 23.2724 15.5152 22.5468 14.9196C21.8213 14.3239 20.9241 14 20 14C19.0759 14 18.1787 14.3239 17.4532 14.9196C16.7276 15.5152 16.2159 16.3478 16.0006 17.2832C15.7853 18.2186 15.879 19.2021 16.2664 20.0753C16.6539 20.9485 17.3127 21.6604 18.1364 22.0963C16.4421 22.5928 14.9839 23.765 14.055 25.4363C14.0295 25.478 14.0124 25.5247 14.0047 25.5736C13.997 25.6224 13.9988 25.6723 14.0101 25.7204C14.0214 25.7685 14.042 25.8136 14.0705 25.8532C14.099 25.8928 14.1349 25.926 14.1761 25.9508C14.2173 25.9755 14.2628 25.9914 14.31 25.9973C14.3572 26.0033 14.4051 25.9993 14.4507 25.9855C14.4964 25.9717 14.5389 25.9484 14.5757 25.9171C14.6125 25.8858 14.6428 25.847 14.6649 25.8032C15.7935 23.7736 17.7875 22.5622 20 22.5622C22.2126 22.5622 24.2065 23.7736 25.3351 25.8032C25.3572 25.847 25.3875 25.8858 25.4243 25.9171C25.4611 25.9484 25.5036 25.9717 25.5493 25.9855C25.5949 25.9993 25.6428 26.0033 25.69 25.9973C25.7372 25.9914 25.7827 25.9755 25.8239 25.9508C25.8651 25.926 25.901 25.8928 25.9295 25.8532C25.958 25.8136 25.9786 25.7685 25.9899 25.7204C26.0012 25.6723 26.003 25.6224 25.9953 25.5736C25.9876 25.5247 25.9705 25.478 25.945 25.4363ZM16.5925 18.2817C16.5925 17.5803 16.7923 16.8946 17.1667 16.3113C17.5412 15.7281 18.0733 15.2735 18.696 15.005C19.3186 14.7366 20.0038 14.6664 20.6648 14.8032C21.3258 14.9401 21.9329 15.2778 22.4095 15.7739C22.886 16.2699 23.2106 16.9018 23.3421 17.5898C23.4735 18.2778 23.4061 18.9909 23.1482 19.639C22.8902 20.2871 22.4535 20.841 21.8931 21.2307C21.3328 21.6204 20.6739 21.8284 20 21.8284C19.0966 21.8273 18.2305 21.4533 17.5917 20.7884C16.9529 20.1235 16.5935 19.222 16.5925 18.2817Z" fill="#2C4246"/>
</svg>
